<?xml version="1.0" encoding="UTF-8" standalone="no"?>
<svg
   xmlns:dc="http://purl.org/dc/elements/1.1/"
   xmlns:cc="http://creativecommons.org/ns#"
   xmlns:rdf="http://www.w3.org/1999/02/22-rdf-syntax-ns#"
   xmlns:svg="http://www.w3.org/2000/svg"
   xmlns="http://www.w3.org/2000/svg"
   xmlns:sodipodi="http://sodipodi.sourceforge.net/DTD/sodipodi-0.dtd"
   xmlns:inkscape="http://www.inkscape.org/namespaces/inkscape"
   version="1.1"
   x="0px"
   y="0px"
   viewBox="0 0 100 100"
   xml:space="preserve"
   id="svg891"
   sodipodi:docname="voiguat.svg"
   inkscape:version="1.0.1 (3bc2e813f5, 2020-09-07)"
   width="100"
   height="100"><metadata
     id="metadata897"><rdf:RDF><cc:Work
         rdf:about=""><dc:format>image/svg+xml</dc:format><dc:type
           rdf:resource="http://purl.org/dc/dcmitype/StillImage" /><dc:title></dc:title></cc:Work></rdf:RDF></metadata><defs
     id="defs895" /><sodipodi:namedview
     pagecolor="#ffffff"
     bordercolor="#666666"
     borderopacity="1"
     objecttolerance="10"
     gridtolerance="10"
     guidetolerance="10"
     inkscape:pageopacity="0"
     inkscape:pageshadow="2"
     inkscape:window-width="1920"
     inkscape:window-height="1059"
     id="namedview893"
     showgrid="false"
     inkscape:zoom="7.578022"
     inkscape:cx="42.877467"
     inkscape:cy="51.12286"
     inkscape:window-x="0"
     inkscape:window-y="0"
     inkscape:window-maximized="1"
     inkscape:current-layer="svg891"
     inkscape:document-rotation="0" /><g
     id="g885"
     transform="matrix(1.2632395,0,0,1.2632395,-11.456602,-5.1770253)"><path
       d="m 18.5,73 7.5,0.2 c 1.3,0.2 2.6,1.8 2.9,2.3 3,5.1 10.2,5.2 10.8,5.2 0,0 0,0 0,0 h 30.5 c 4.1,0 7.4,-3.3 7.4,-7.4 0,-2 -0.8,-3.8 -2.1,-5.2 2.1,-1.3 3.5,-3.6 3.5,-6.3 0,-2 -0.8,-3.8 -2.1,-5.2 2.1,-1.3 3.5,-3.6 3.5,-6.3 0,-2.3 -1.1,-4.4 -2.7,-5.7 1.7,-1.4 2.7,-3.4 2.7,-5.7 0,-4.1 -3.3,-7.4 -7.4,-7.4 l -14.5,0.1 v 0 c -3.4,0 -3.7,-2.1 -3.7,-2.8 L 54.6,15.1 C 54.7,12.5 52.9,7.3 45.8,6.7 42.3,6.5 40,7 38.8,8.5 38.1,9.3 38,10.3 38.1,11 c 0,1 0.1,7.1 0,10.4 -0.2,2.6 -1.1,3.6 -1.3,3.7 -1.1,0.6 -7.9,4.5 -10.4,12.6 -0.9,2.8 -2.2,3.9 -2.7,4.1 h -4 c -0.9,0 -1.7,0.8 -1.7,1.7 0,0.9 0.8,1.7 1.7,1.7 h 4.4 c 0.2,0 0.4,0 0.5,-0.1 0.4,-0.1 3.5,-1.3 5,-6.5 2.2,-7.2 8.7,-10.6 8.8,-10.7 0.1,0 0.1,-0.1 0.1,-0.1 0.3,-0.2 2.5,-1.7 2.8,-6.4 0.2,-3.6 0.1,-10.5 0.1,-10.8 0,-0.1 0,-0.1 0,-0.2 0.2,-0.2 1.1,-0.7 4.1,-0.4 5.6,0.5 5.7,4.5 5.7,5 l 0.3,14 c 0,0.2 0,1.3 0.6,2.6 h -0.9 c 0,0 0,0 0,0 -1.3,0 -1.9,-1.3 -1.9,-1.4 -0.3,-0.9 -1.3,-1.3 -2.2,-1 -0.9,0.3 -1.3,1.3 -1,2.2 0.5,1.3 2.1,3.6 5,3.6 0,0 0.1,0 0.1,0 l 7.4,0.2 c 0,0 0,0 0,0 0,0 0,0 0,0 0,0 0,0 0,0 L 73.1,35 c 2.2,0 4,1.8 4,4 0,2.2 -1.8,4 -4,4 h -2 c -0.9,0 -1.7,0.8 -1.7,1.7 0,0.9 0.8,1.7 1.7,1.7 h 2 c 2.2,0 4,1.8 4,4 0,2.2 -1.8,4 -4,4 h -1.4 -0.6 -1.4 c -0.9,0 -1.7,0.8 -1.7,1.7 0,0.9 0.8,1.7 1.7,1.7 h 1.4 0.6 c 2.2,0 4,1.8 4,4 0,2.2 -1.8,4 -4,4 h -1.4 -0.6 -1.4 c -0.9,0 -1.7,0.8 -1.7,1.7 0,0.9 0.8,1.7 1.7,1.7 h 1.4 0.6 c 2.2,0 4,1.8 4,4 0,2.2 -1.8,4 -4,4 H 39.8 v 0 c -0.1,0 -5.8,-0.1 -7.9,-3.6 -0.2,-0.4 -2.3,-3.6 -5.6,-4 0,0 -0.1,0 -0.1,0 l -7.6,-0.2 c -0.9,0 -1.7,0.7 -1.7,1.6 0,0.9 0.7,2 1.6,2 z"
       id="path883" /></g></svg>
